<svg width="8" height="7" viewBox="0 0 8 7" fill="none" xmlns="http://www.w3.org/2000/svg">
<g opacity="0.2">
<path d="M3.48827 6.02716C3.4577 5.99731 3.32698 5.88463 3.21946 5.77966C2.5432 5.16428 1.43631 3.55892 1.09845 2.71867C1.04416 2.59107 0.929254 2.26845 0.921875 2.09608C0.921875 1.93092 0.959825 1.77347 1.03678 1.62322C1.14431 1.43593 1.3135 1.28569 1.51327 1.20336C1.65189 1.15036 2.06671 1.06804 2.07409 1.06804C2.52792 0.985709 3.26531 0.94043 4.08019 0.94043C4.8566 0.94043 5.56395 0.985709 6.02463 1.05311C6.03201 1.06083 6.5475 1.14316 6.72408 1.2332C7.04665 1.39837 7.24695 1.72098 7.24695 2.06624V2.09608C7.23904 2.32094 7.03875 2.7938 7.03137 2.7938C6.69298 3.58876 5.64038 5.15707 4.94093 5.78738C4.94093 5.78738 4.76119 5.9649 4.64892 6.04208C4.48763 6.16248 4.28787 6.22217 4.0881 6.22217C3.86514 6.22217 3.65747 6.15476 3.48827 6.02716Z" fill="#06152B"/>
</g>
</svg>
